<?xml version="1.0" standalone="no"?><!DOCTYPE svg PUBLIC "-//W3C//DTD SVG 1.1//EN" "http://www.w3.org/Graphics/SVG/1.1/DTD/svg11.dtd"><svg t="1610604597088" class="icon" viewBox="0 0 1024 1024" version="1.1" xmlns="http://www.w3.org/2000/svg" p-id="4595" xmlns:xlink="http://www.w3.org/1999/xlink" width="200" height="200"><defs><style type="text/css"></style></defs><path d="M352 256a32 32 0 0 0 32-32V96a32 32 0 0 0-64 0v128a32 32 0 0 0 32 32zM672 256a32 32 0 0 0 32-32V96a32 32 0 0 0-64 0v128a32 32 0 0 0 32 32z" p-id="4596"></path><path d="M832 128h-64v96a96 96 0 0 1-192 0v-96H448v96a96 96 0 0 1-192 0v-96h-64a64 64 0 0 0-64 64v640a64 64 0 0 0 64 64h640a64 64 0 0 0 64-64V192a64 64 0 0 0-64-64zM352 736a32 32 0 0 1-64 0V544a32 32 0 0 1 64 0z m192 0a32 32 0 0 1-64 0V416a32 32 0 0 1 64 0z m192 0a32 32 0 0 1-64 0V480a32 32 0 0 1 64 0z" p-id="4597"></path></svg>